HIERARCHY
ROOT Hips
{
	OFFSET 0.000000 83.214638 0.000000
	CHANNELS 6 Xposition Yposition Zposition Xrotation Yrotation Zrotation
	JOINT Pelvis
	{
		OFFSET 0.000000 0.000000 0.000000
		CHANNELS 3 Xrotation Yrotation Zrotation
		JOINT LeftUpLeg
		{
			OFFSET 8.479700 -4.795502 -0.379100
			CHANNELS 3 Xrotation Yrotation Zrotation
			JOINT LeftLeg
			{
				OFFSET 0.024144 -32.555107 0.112900
				CHANNELS 3 Xrotation Yrotation Zrotation
				JOINT LeftFoot
				{
					OFFSET -0.024144 -32.638630 -3.012600
					CHANNELS 3 Xrotation Yrotation Zrotation
					JOINT LeftToeBase
					{
						OFFSET 0.970200 -13.225400 11.864200
						CHANNELS 3 Xrotation Yrotation Zrotation
						End Site
						{
							OFFSET 0.000000 12.319262 0.000000
						}
					}
					JOINT LFootTongue
					{
						OFFSET 1.142400 -1.059800 6.665200
						CHANNELS 3 Xrotation Yrotation Zrotation
						End Site
						{
							OFFSET 0.000000 12.319262 0.000000
						}
					}
				}
				JOINT LeftPantLeg
				{
					OFFSET 0.918482 -16.533964 -2.284700
					CHANNELS 3 Xrotation Yrotation Zrotation
					End Site
					{
						OFFSET 0.350399 24.744368 0.000000
					}
				}
			}
		}
		JOINT RightUpLeg
		{
			OFFSET -8.479700 -4.795502 -0.379100
			CHANNELS 3 Xrotation Yrotation Zrotation
			JOINT RightLeg
			{
				OFFSET -0.023144 -32.555092 0.112900
				CHANNELS 3 Xrotation Yrotation Zrotation
				JOINT RightFoot
				{
					OFFSET 0.023144 -32.638641 -3.012700
					CHANNELS 3 Xrotation Yrotation Zrotation
					JOINT RightToeBase
					{
						OFFSET -0.970200 -13.225400 11.864200
						CHANNELS 3 Xrotation Yrotation Zrotation
						End Site
						{
							OFFSET 0.000000 12.319244 0.000000
						}
					}
					JOINT RFootTongue
					{
						OFFSET -1.142200 -1.059800 6.665200
						CHANNELS 3 Xrotation Yrotation Zrotation
						End Site
						{
							OFFSET 0.000000 12.319243 0.000000
						}
					}
				}
				JOINT RightPantLeg
				{
					OFFSET -0.919482 -16.533978 -2.284800
					CHANNELS 3 Xrotation Yrotation Zrotation
					End Site
					{
						OFFSET -0.350400 24.744419 0.000000
					}
				}
			}
		}
	}
	JOINT Spine
	{
		OFFSET 0.000000 7.722000 1.166200
		CHANNELS 3 Xrotation Yrotation Zrotation
		JOINT Spine1
		{
			OFFSET 0.000000 12.024101 0.248800
			CHANNELS 3 Xrotation Yrotation Zrotation
			JOINT Spine2
			{
				OFFSET 0.000000 11.502998 -0.491200
				CHANNELS 3 Xrotation Yrotation Zrotation
				JOINT Neck
				{
					OFFSET 0.000000 18.430702 -3.123100
					CHANNELS 3 Xrotation Yrotation Zrotation
					JOINT Head
					{
						OFFSET 0.000000 9.051102 1.034000
						CHANNELS 3 Xrotation Yrotation Zrotation
						JOINT HairB
						{
							OFFSET 0.208400 24.786102 24.822300
							CHANNELS 3 Xrotation Yrotation Zrotation
							End Site
							{
								OFFSET 0.000000 32.263779 0.000000
							}
						}
						JOINT HairA
						{
							OFFSET -7.081100 24.428299 23.196600
							CHANNELS 3 Xrotation Yrotation Zrotation
							End Site
							{
								OFFSET 0.000000 32.263779 0.000000
							}
						}
						JOINT Hat
						{
							OFFSET 16.728800 15.048294 -15.439601
							CHANNELS 3 Xrotation Yrotation Zrotation
							End Site
							{
								OFFSET 0.000000 32.263779 0.000000
							}
						}
					}
				}
				JOINT LeftShoulder
				{
					OFFSET 6.197800 13.665199 -4.064700
					CHANNELS 3 Xrotation Yrotation Zrotation
					JOINT LeftArm
					{
						OFFSET 7.778100 -0.187103 -1.709300
						CHANNELS 3 Xrotation Yrotation Zrotation
						JOINT LeftForeArm
						{
							OFFSET 22.049376 0.000000 0.000000
							CHANNELS 3 Xrotation Yrotation Zrotation
							JOINT LeftHand
							{
								OFFSET 23.009392 0.000000 0.000000
								CHANNELS 3 Xrotation Yrotation Zrotation
								JOINT LeftHandThumb1
								{
									OFFSET 3.507191 -2.063065 3.133727
									CHANNELS 3 Xrotation Yrotation Zrotation
									JOINT LeftHandThumb2
									{
										OFFSET 3.101337 -1.790558 1.790558
										CHANNELS 3 Xrotation Yrotation Zrotation
										JOINT LeftHandThumb3
										{
											OFFSET 3.058640 -1.765907 1.765906
											CHANNELS 3 Xrotation Yrotation Zrotation
											End Site
											{
												OFFSET -0.415260 3.926476 -0.049563
											}
										}
									}
								}
								JOINT LeftHandIndex1
								{
									OFFSET 11.334419 -0.901459 3.706815
									CHANNELS 3 Xrotation Yrotation Zrotation
									JOINT LeftHandIndex2
									{
										OFFSET 3.283112 0.000000 0.000000
										CHANNELS 3 Xrotation Yrotation Zrotation
										JOINT LeftHandIndex3
										{
											OFFSET 3.323853 0.000000 0.000000
											CHANNELS 3 Xrotation Yrotation Zrotation
											End Site
											{
												OFFSET -1.135597 3.097809 0.402452
											}
										}
									}
								}
								JOINT LeftHandMiddle1
								{
									OFFSET 11.335861 0.000000 0.000000
									CHANNELS 3 Xrotation Yrotation Zrotation
									JOINT LeftHandMiddle2
									{
										OFFSET 3.410492 0.000000 0.000000
										CHANNELS 3 Xrotation Yrotation Zrotation
										JOINT LeftHandMiddle3
										{
											OFFSET 3.312172 0.000000 0.000000
											CHANNELS 3 Xrotation Yrotation Zrotation
											End Site
											{
												OFFSET -1.150200 3.080154 0.400270
											}
										}
									}
								}
								JOINT LeftHandRing1
								{
									OFFSET 11.514786 -0.013176 -3.003090
									CHANNELS 3 Xrotation Yrotation Zrotation
									JOINT LeftHandRing2
									{
										OFFSET 3.053307 0.000000 0.000000
										CHANNELS 3 Xrotation Yrotation Zrotation
										JOINT LeftHandRing3
										{
											OFFSET 3.295807 0.000000 0.000000
											CHANNELS 3 Xrotation Yrotation Zrotation
											End Site
											{
												OFFSET -1.281006 3.013344 0.375733
											}
										}
									}
								}
								JOINT LeftHandPinky1
								{
									OFFSET 10.518692 -0.960396 -5.730441
									CHANNELS 3 Xrotation Yrotation Zrotation
									JOINT LeftHandPinky2
									{
										OFFSET 2.861649 0.000000 0.000000
										CHANNELS 3 Xrotation Yrotation Zrotation
										JOINT LeftHandPinky3
										{
											OFFSET 2.863380 0.000000 0.000000
											CHANNELS 3 Xrotation Yrotation Zrotation
											End Site
											{
												OFFSET -0.843597 2.711159 0.369971
											}
										}
									}
								}
							}
							JOINT LSleeve
							{
								OFFSET 6.676277 -0.344902 -1.011730
								CHANNELS 3 Xrotation Yrotation Zrotation
								End Site
								{
									OFFSET 0.000000 14.885353 0.000000
								}
							}
						}
					}
				}
				JOINT RightShoulder
				{
					OFFSET -6.197800 13.665199 -4.064700
					CHANNELS 3 Xrotation Yrotation Zrotation
					JOINT RightArm
					{
						OFFSET -7.778100 -0.187103 -1.709300
						CHANNELS 3 Xrotation Yrotation Zrotation
						JOINT RightForeArm
						{
							OFFSET -22.049376 0.000000 0.000000
							CHANNELS 3 Xrotation Yrotation Zrotation
							JOINT RightHand
							{
								OFFSET -23.009392 0.000000 0.000000
								CHANNELS 3 Xrotation Yrotation Zrotation
								JOINT RightHandThumb1
								{
									OFFSET -3.507191 -2.063065 3.133727
									CHANNELS 3 Xrotation Yrotation Zrotation
									JOINT RightHandThumb2
									{
										OFFSET -3.101337 -1.790558 1.790558
										CHANNELS 3 Xrotation Yrotation Zrotation
										JOINT RightHandThumb3
										{
											OFFSET -3.058640 -1.765907 1.765906
											CHANNELS 3 Xrotation Yrotation Zrotation
											End Site
											{
												OFFSET 0.415260 3.926476 -0.049563
											}
										}
									}
								}
								JOINT RightHandIndex1
								{
									OFFSET -11.334419 -0.901459 3.706815
									CHANNELS 3 Xrotation Yrotation Zrotation
									JOINT RightHandIndex2
									{
										OFFSET -3.283112 0.000000 0.000000
										CHANNELS 3 Xrotation Yrotation Zrotation
										JOINT RightHandIndex3
										{
											OFFSET -3.323853 0.000000 0.000000
											CHANNELS 3 Xrotation Yrotation Zrotation
											End Site
											{
												OFFSET 1.135597 3.097809 0.402452
											}
										}
									}
								}
								JOINT RightHandMiddle1
								{
									OFFSET -11.335861 0.000000 0.000000
									CHANNELS 3 Xrotation Yrotation Zrotation
									JOINT RightHandMiddle2
									{
										OFFSET -3.410492 0.000000 0.000000
										CHANNELS 3 Xrotation Yrotation Zrotation
										JOINT RightHandMiddle3
										{
											OFFSET -3.312172 0.000000 0.000000
											CHANNELS 3 Xrotation Yrotation Zrotation
											End Site
											{
												OFFSET 1.150200 3.080154 0.400270
											}
										}
									}
								}
								JOINT RightHandRing1
								{
									OFFSET -11.514786 -0.013176 -3.003090
									CHANNELS 3 Xrotation Yrotation Zrotation
									JOINT RightHandRing2
									{
										OFFSET -3.053307 0.000000 0.000000
										CHANNELS 3 Xrotation Yrotation Zrotation
										JOINT RightHandRing3
										{
											OFFSET -3.295807 0.000000 0.000000
											CHANNELS 3 Xrotation Yrotation Zrotation
											End Site
											{
												OFFSET 1.281006 3.013344 0.375733
											}
										}
									}
								}
								JOINT RightHandPinky1
								{
									OFFSET -10.518692 -0.960396 -5.730441
									CHANNELS 3 Xrotation Yrotation Zrotation
									JOINT RightHandPinky2
									{
										OFFSET -2.861649 0.000000 0.000000
										CHANNELS 3 Xrotation Yrotation Zrotation
										JOINT RightHandPinky3
										{
											OFFSET -2.863380 0.000000 0.000000
											CHANNELS 3 Xrotation Yrotation Zrotation
											End Site
											{
												OFFSET 0.843597 2.711159 0.369971
											}
										}
									}
								}
							}
							JOINT RSleeve
							{
								OFFSET -6.676277 -0.344902 -1.011730
								CHANNELS 3 Xrotation Yrotation Zrotation
								End Site
								{
									OFFSET 0.000000 14.885353 0.000000
								}
							}
						}
					}
				}
				JOINT Backpack
				{
					OFFSET 0.000000 -2.471497 36.677502
					CHANNELS 3 Xrotation Yrotation Zrotation
					End Site
					{
						OFFSET 0.000000 20.427315 0.000000
					}
				}
				JOINT Hood
				{
					OFFSET 0.000000 18.754097 -10.431000
					CHANNELS 3 Xrotation Yrotation Zrotation
					JOINT Hood1
					{
						OFFSET 0.000000 -5.011002 -7.685901
						CHANNELS 3 Xrotation Yrotation Zrotation
						End Site
						{
							OFFSET 0.000000 9.175140 0.000000
						}
					}
				}
				JOINT LHoodieString
				{
					OFFSET 5.250500 16.397697 3.089900
					CHANNELS 3 Xrotation Yrotation Zrotation
					JOINT LHoodieString1
					{
						OFFSET 0.257700 -6.364304 3.694600
						CHANNELS 3 Xrotation Yrotation Zrotation
						JOINT LHoodieString2
						{
							OFFSET 0.000000 -9.643799 2.679100
							CHANNELS 3 Xrotation Yrotation Zrotation
							End Site
							{
								OFFSET 0.000000 10.009018 0.000000
							}
						}
					}
				}
				JOINT RHoodieString
				{
					OFFSET -5.250500 16.397697 3.089900
					CHANNELS 3 Xrotation Yrotation Zrotation
					JOINT RHoodieString1
					{
						OFFSET -0.257700 -6.364304 3.694600
						CHANNELS 3 Xrotation Yrotation Zrotation
						JOINT RHoodieString2
						{
							OFFSET 0.000000 -9.643799 2.679100
							CHANNELS 3 Xrotation Yrotation Zrotation
							End Site
							{
								OFFSET 0.000000 10.009018 0.000000
							}
						}
					}
				}
			}
			JOINT LBackpack_Strap
			{
				OFFSET 15.223200 -7.719803 -6.610900
				CHANNELS 3 Xrotation Yrotation Zrotation
				End Site
				{
					OFFSET 0.000000 16.040596 0.000000
				}
			}
			JOINT RBackpack_Strap
			{
				OFFSET -15.223000 -7.719803 -6.610900
				CHANNELS 3 Xrotation Yrotation Zrotation
				End Site
				{
					OFFSET 0.000000 16.040596 0.000000
				}
			}
		}
	}
	JOINT BoyFacialAnim_Joint
	{
		OFFSET 1.000000 -82.208099 -1.550900
		CHANNELS 3 Xrotation Yrotation Zrotation
		End Site
		{
			OFFSET 0.000000 30.012791 0.000000
		}
	}
}
MOTION
Frames: 4
Frame Time: 0.033333
-0.622254 73.306152 -0.615661 11.588743 -50.778802 9.533519 -0.000000 0.000001 -0.000000 -57.503451 29.016819 40.267865 32.814824 -18.263523 2.384211 7.500127 1.431191 -12.934019 -0.000000 -0.000000 0.000000 -0.000000 -0.000000 0.000000 -0.000000 0.000001 0.000001 -30.554407 -3.400264 -21.315086 44.654366 2.209217 -5.852291 -22.038920 -0.957346 22.366585 0.000000 -0.000003 -0.000000 0.000000 -0.000003 -0.000000 0.000000 -0.000002 0.000002 9.682162 2.908253 -2.530232 3.751075 4.960664 -4.936248 -8.219772 5.660311 -3.957207 4.759094 10.952505 -1.827319 -4.805463 22.999743 -2.683658 0.000000 0.000000 0.000000 0.000000 0.000000 0.000000 0.000000 0.000000 0.000000 -1.633639 -12.484971 -2.139613 -7.155112 10.547483 -46.308191 -21.743936 -23.567803 -13.911198 0.919144 -4.878644 8.569270 18.457980 -9.513784 13.216629 -1.150177 11.255343 -8.400861 -0.000003 -0.000002 -0.000001 -1.232786 -5.772028 -0.192390 0.133959 -0.197631 -4.602149 -0.000004 -0.000000 -0.000002 1.884751 4.663357 -4.597413 0.476646 -1.009854 -12.986487 0.000002 -0.000003 0.000005 3.024657 7.938889 -14.103569 -0.707979 -0.566145 -18.895689 0.000003 -0.000000 -0.000000 2.010436 6.305916 -22.386546 -0.815382 -0.210798 -16.746452 -0.000000 0.000001 0.000003 0.000001 0.000000 0.000001 -5.098564 20.768153 0.172420 14.240709 -53.680161 57.796508 -27.127483 54.062528 26.658075 10.958376 19.533678 0.996087 55.149556 18.649551 -29.698325 -0.442557 -14.180560 7.313083 -0.000000 -0.000001 0.000000 5.673435 7.585021 36.844158 1.050432 3.824488 68.900223 -0.000001 0.000000 0.000004 -0.125691 1.886093 45.000701 -1.169010 3.204679 68.417739 0.000002 0.000001 -0.000002 -5.311989 1.216650 58.508780 -0.745179 1.667614 48.011322 -0.000002 0.000000 0.000002 -7.756807 -9.376452 47.263977 -0.526085 1.541575 45.600566 0.000001 0.000000 -0.000001 0.000001 0.000000 -0.000001 -0.000001 -0.000005 0.000000 -0.000001 -0.000005 0.000000 -0.000001 -0.000005 0.000000 -0.000001 -0.000005 0.000000 -0.000001 -0.000005 0.000001 -0.000001 -0.000001 0.000001 -0.000001 -0.000005 0.000000 -0.000001 -0.000005 0.000001 -0.000001 -0.000001 0.000001 0.000004 -0.000002 0.000001 0.000004 -0.000002 0.000001 -0.000000 0.000001 -0.000000 
-0.496492 73.032372 -0.363315 12.877513 -50.753278 10.669657 0.000001 -0.000002 0.000000 -59.313028 28.947988 40.679569 34.644106 -18.471661 2.512693 6.644554 1.471889 -12.472849 -0.000000 -0.000000 0.000000 -0.000000 -0.000000 0.000000 -0.000000 0.000000 -0.000001 -31.608504 -2.774244 -21.560339 45.301318 2.128773 -5.931017 -22.295182 -1.173937 22.740814 0.000000 -0.000000 -0.000000 0.000000 -0.000000 -0.000000 -0.000001 -0.000000 0.000002 9.802768 2.924963 -2.447703 3.981993 5.023351 -4.755334 -7.986416 5.691174 -3.761714 4.482386 10.779434 -1.604916 -5.307675 23.313562 -3.349708 0.000000 0.000000 0.000000 0.000000 0.000000 0.000000 0.000000 0.000000 0.000000 -1.657967 -13.165949 -2.454212 -7.448068 8.987364 -46.342150 -22.270458 -23.970277 -14.422272 0.442846 -4.178168 7.125739 18.457980 -9.513775 13.216633 -1.150203 11.255290 -8.400924 -0.000000 0.000002 -0.000002 -1.232792 -5.771996 -0.192352 0.133957 -0.197600 -4.602109 -0.000001 0.000002 -0.000003 1.884738 4.663380 -4.597424 0.476699 -1.009843 -12.986384 0.000003 0.000004 -0.000001 3.024667 7.938906 -14.103553 -0.708020 -0.566219 -18.895742 -0.000000 0.000000 -0.000000 2.010403 6.305932 -22.386567 -0.815400 -0.210763 -16.746476 -0.000002 -0.000000 0.000001 -0.000001 0.000003 -0.000002 -5.200094 21.220370 1.038730 11.818986 -49.902134 59.944301 -31.190930 54.345913 27.135199 7.236656 24.538353 5.223441 55.149553 18.649536 -29.698318 -0.442543 -14.180573 7.313124 0.000000 -0.000001 0.000001 5.673386 7.584993 36.844195 1.050449 3.824499 68.900175 -0.000002 0.000001 0.000002 -0.125694 1.886095 45.000739 -1.169026 3.204645 68.417670 0.000001 0.000003 -0.000001 -5.311998 1.216634 58.508794 -0.745211 1.667600 48.011288 -0.000003 -0.000002 0.000002 -7.756840 -9.376522 47.263980 -0.526009 1.541603 45.600525 -0.000000 -0.000002 0.000002 0.000002 -0.000003 0.000002 0.000001 -0.000000 0.000001 0.000001 -0.000000 0.000001 0.000001 -0.000000 0.000001 0.000001 -0.000000 0.000001 0.000001 -0.000000 0.000001 0.000001 0.000001 0.000000 0.000001 -0.000000 0.000001 0.000001 -0.000000 0.000001 0.000001 0.000001 0.000000 -0.000000 -0.000000 -0.000000 -0.000000 -0.000000 -0.000000 0.000001 -0.000002 0.000000 
-0.312237 72.696297 -0.139781 13.688507 -50.618617 11.355902 -0.000000 -0.000003 0.000000 -61.039502 28.705014 41.103860 36.700174 -18.725194 2.652737 5.769686 1.473685 -11.921383 0.000000 0.000000 -0.000000 0.000000 0.000000 -0.000000 -0.000000 0.000000 0.000000 -32.481894 -2.258256 -21.815778 46.145772 2.046399 -6.037114 -22.632281 -1.422133 23.142271 -0.000000 -0.000003 -0.000000 -0.000000 -0.000003 -0.000000 -0.000000 0.000001 -0.000000 9.999154 2.963458 -2.314718 4.335197 5.152766 -4.482742 -7.630622 5.774887 -3.459162 4.304681 10.519138 -1.427629 -5.592859 23.437687 -3.812663 0.000000 -0.000000 -0.000000 0.000000 -0.000000 -0.000000 0.000000 -0.000000 -0.000000 -1.784469 -14.233501 -3.088148 -8.128266 7.463483 -46.031688 -22.544691 -24.145562 -14.755539 0.611442 -3.788949 6.181318 18.457983 -9.513765 13.216658 -1.150188 11.255277 -8.400867 0.000002 0.000000 -0.000003 -1.232758 -5.772013 -0.192370 0.133958 -0.197593 -4.602125 -0.000004 0.000001 -0.000005 1.884760 4.663351 -4.597411 0.476689 -1.009848 -12.986486 0.000009 -0.000002 0.000005 3.024669 7.938863 -14.103591 -0.707976 -0.566206 -18.895662 0.000002 0.000002 -0.000000 2.010428 6.305887 -22.386570 -0.815406 -0.210716 -16.746406 -0.000006 0.000002 0.000000 0.000001 -0.000001 -0.000000 -5.286363 21.746259 1.686945 9.685860 -46.503510 61.461321 -34.246066 54.120247 26.836636 5.193783 29.192573 9.127759 55.149570 18.649534 -29.698284 -0.442584 -14.180569 7.313065 -0.000001 0.000001 -0.000001 5.673407 7.585005 36.844199 1.050440 3.824471 68.900223 0.000003 0.000000 0.000002 -0.125664 1.886044 45.000756 -1.168995 3.204671 68.417643 -0.000000 0.000001 -0.000000 -5.312004 1.216611 58.508814 -0.745177 1.667571 48.011278 -0.000000 0.000001 0.000001 -7.756794 -9.376498 47.263987 -0.526049 1.541570 45.600566 -0.000003 -0.000003 0.000001 0.000000 -0.000001 0.000002 0.000002 0.000002 0.000000 0.000002 0.000002 0.000000 0.000002 0.000002 0.000000 0.000002 0.000002 0.000000 0.000002 0.000002 0.000001 0.000001 0.000002 -0.000000 0.000002 0.000002 0.000000 0.000002 0.000002 0.000001 0.000001 0.000002 -0.000000 -0.000001 0.000001 -0.000000 -0.000001 0.000001 -0.000000 -0.000000 -0.000003 0.000000 
-0.164059 72.288948 0.024728 13.981643 -50.568590 11.897361 -0.000000 0.000003 -0.000000 -62.309029 28.589833 41.400768 38.764414 -18.918593 2.793575 4.896911 1.491621 -11.446140 -0.000000 0.000000 -0.000000 -0.000000 0.000000 -0.000000 0.000001 0.000001 -0.000000 -33.286230 -1.653291 -22.326483 47.462267 2.079633 -6.180332 -23.220533 -1.639250 23.491894 -0.000000 0.000002 0.000000 -0.000000 0.000002 0.000000 -0.000003 0.000002 -0.000001 10.206205 2.987109 -2.246868 4.767654 5.275756 -4.345490 -7.189895 5.889118 -3.280279 4.251275 10.211838 -1.173191 -5.603932 23.566733 -4.055885 0.000002 0.000000 -0.000000 0.000002 0.000000 -0.000000 0.000002 0.000000 -0.000000 -1.821417 -14.751839 -3.124807 -8.979125 5.730117 -46.276478 -22.627076 -24.405477 -14.896813 1.501086 -3.128805 5.661835 18.457953 -9.513762 13.216656 -1.150192 11.255347 -8.400897 -0.000004 0.000002 -0.000002 -1.232784 -5.771961 -0.192332 0.133973 -0.197627 -4.602134 0.000001 0.000004 -0.000005 1.884707 4.663369 -4.597393 0.476688 -1.009796 -12.986409 0.000003 -0.000001 0.000002 3.024666 7.938901 -14.103490 -0.708026 -0.566226 -18.895691 -0.000004 -0.000001 -0.000001 2.010403 6.305909 -22.386514 -0.815388 -0.210759 -16.746514 0.000002 0.000001 0.000002 0.000001 0.000000 -0.000001 -5.267628 22.585692 1.860633 8.095331 -43.373016 61.519685 -33.262113 52.682352 25.434416 3.054729 33.210456 10.471936 55.149584 18.649538 -29.698294 -0.442582 -14.180565 7.313080 -0.000003 0.000000 0.000001 5.673391 7.585001 36.844209 1.050489 3.824474 68.900148 0.000001 -0.000000 -0.000000 -0.125668 1.886069 45.000749 -1.169020 3.204697 68.417670 0.000001 0.000001 0.000001 -5.312010 1.216619 58.508835 -0.745210 1.667563 48.011295 0.000001 -0.000000 0.000002 -7.756819 -9.376488 47.263997 -0.526021 1.541566 45.600532 -0.000000 -0.000001 -0.000002 -0.000000 -0.000002 0.000002 -0.000000 0.000001 0.000001 -0.000000 0.000001 0.000001 -0.000000 0.000001 0.000001 -0.000000 0.000001 0.000001 -0.000000 0.000001 0.000001 -0.000002 0.000001 0.000001 -0.000000 0.000001 0.000001 -0.000000 0.000001 0.000001 -0.000002 0.000001 0.000001 -0.000002 -0.000000 -0.000000 -0.000002 -0.000000 -0.000000 -0.000000 0.000003 -0.000000 
